<?xml version="1.0" encoding="utf-8"?>
<!-- Generator: Adobe Illustrator 16.0.0, SVG Export Plug-In . SVG Version: 6.00 Build 0)  -->
<!DOCTYPE svg PUBLIC "-//W3C//DTD SVG 1.1//EN" "http://www.w3.org/Graphics/SVG/1.1/DTD/svg11.dtd">
<svg version="1.1" id="b8669117-6177-4f3a-a75c-05852d999d53"
	 xmlns="http://www.w3.org/2000/svg" xmlns:xlink="http://www.w3.org/1999/xlink" x="0px" y="0px" width="801.953px" height="537px"
	 viewBox="0 0 801.953 537" enable-background="new 0 0 801.953 537" xml:space="preserve">
<path fill="#EF9E9E" d="M658.249,321.504c0.531-0.158,1.072-0.274,1.621-0.348l21.898-44.496l-6.686-10.023l13.808-12.067
	l17.357,21.24l-35.351,51.448c2.365,5.292-0.008,11.5-5.299,13.865c-5.293,2.365-11.5-0.008-13.865-5.3s0.007-11.499,5.299-13.865
	C657.429,321.782,657.835,321.63,658.249,321.504L658.249,321.504z"/>
<path fill="#CCCCCC" d="M695.632,260.718c-0.299,0.314-0.641,0.584-1.016,0.801l-22.406,12.989
	c-2.149,1.246-4.902,0.515-6.149-1.635c-0.063-0.109-0.121-0.22-0.175-0.333l-10.897-23.022c-0.958-2.003-0.304-4.405,1.538-5.646
	l13.889-9.448c1.789-1.216,4.19-0.987,5.718,0.544l19.413,19.481C697.263,256.173,697.301,258.948,695.632,260.718L695.632,260.718z
	"/>
<polygon fill="#EF9E9E" points="727.092,515.689 715.262,518.908 697.217,474.811 714.677,470.06 "/>
<path fill="#2F2E41" d="M705.893,517.827l22.814-6.207l0,0l3.908,14.364l0,0L695.437,536.1l0,0l0,0
	C693.277,528.167,697.959,519.985,705.893,517.827z"/>
<polygon fill="#EF9E9E" points="625.961,524.716 613.702,524.715 607.869,477.427 625.963,477.428 "/>
<path fill="#2F2E41" d="M604.944,521.213h23.644l0,0V536.1l0,0h-38.53l0,0l0,0C590.058,527.878,596.723,521.213,604.944,521.213z"/>
<circle fill="#EF9E9E" cx="638.878" cy="194.166" r="24.561"/>
<path fill="#2F2E41" d="M625.211,491h-16.754c-2.377-0.004-4.343-1.851-4.496-4.223c-4.992-79.361-2.071-136.289,9.19-179.153
	c0.049-0.188,0.109-0.372,0.182-0.552l0.897-2.243c0.679-1.713,2.337-2.835,4.179-2.829h34.452c1.313-0.001,2.562,0.573,3.416,1.571
	l4.68,5.46c0.092,0.106,0.177,0.215,0.259,0.329c21.102,29.426,40.012,86.954,61.912,164.278c0.673,2.337-0.64,4.784-2.958,5.517
	l-18.005,5.762c-2.137,0.673-4.443-0.319-5.425-2.332l-46.723-96.907c-0.84-1.741-2.933-2.472-4.673-1.632
	c-1.058,0.51-1.788,1.516-1.947,2.678l-13.729,100.386C629.357,489.335,627.458,490.992,625.211,491z"/>
<path fill="#CCCCCC" d="M659.068,309.431c-0.047,0-0.094-0.001-0.142-0.002l-41.848-1.321c-2.225-0.063-4.066-1.745-4.329-3.954
	c-5.305-42.941,9.244-54.445,15.746-57.397c1.104-0.499,1.868-1.54,2.012-2.743l0.563-4.501c0.096-0.795,0.403-1.549,0.89-2.186
	c10.193-13.205,24.112-17.434,31.502-18.778c2.442-0.439,4.778,1.185,5.217,3.627c0.014,0.074,0.025,0.148,0.035,0.222l0.843,6.463
	c0.085,0.616,0.331,1.2,0.713,1.691c21.259,27.792-2.425,68.827-7.388,76.771l0,0C662.057,308.633,660.617,309.43,659.068,309.431z"
	/>
<path fill="#2F2E41" d="M688.432,196.93c-5.479-7.715-12.05-14.593-19.506-20.42c-6.198-4.841-13.098-8.978-20.709-10.956
	c-7.612-1.979-16.019-1.642-22.964,2.049s-14.125,11.024-14.169,18.889c-0.014,2.527,0.629,5.945,3.117,5.508l0.72,0.096
	c6.002-1.212,12.004-2.425,18.007-3.637c2.557,8.872,5.112,17.744,7.669,26.616c0.539,1.87,1.262,3.961,3.037,4.758
	c1.672,0.751,3.604,0.043,5.296-0.663c0.278-0.116,2.668-5.482,2.668-5.482c0.186-0.52,0.758-0.791,1.278-0.605
	c0.175,0.063,0.328,0.172,0.444,0.317l1.42,1.775c0.558,0.697,1.509,0.94,2.332,0.596c9.788-4.086,19.577-8.172,29.366-12.259
	c1.353-0.564,2.864-1.302,3.257-2.715C690.071,199.444,689.244,198.076,688.432,196.93z"/>
<path fill="#3F3D56" d="M800.953,537h-301c-0.553,0-1-0.447-1-1s0.447-1,1-1h301c0.552,0,1,0.447,1,1S801.505,537,800.953,537z"/>
<path fill="#FA8072" d="M637.77,381.164c-0.68-0.003-1.342-0.222-1.889-0.625l-4.552-3.308c-0.775-0.565-1.827-0.565-2.603,0
	l-4.552,3.308c-1.436,1.043-3.445,0.725-4.488-0.711c-0.604-0.832-0.774-1.903-0.457-2.882l1.739-5.351
	c0.298-0.912-0.027-1.913-0.805-2.475l-4.552-3.309c-1.436-1.043-1.754-3.053-0.711-4.488c0.605-0.832,1.571-1.324,2.6-1.324h5.627
	c0.959,0.002,1.811-0.616,2.105-1.529l1.738-5.352c0.548-1.688,2.36-2.611,4.049-2.063c0.979,0.318,1.745,1.085,2.063,2.063
	l1.738,5.352c0.295,0.913,1.146,1.531,2.105,1.529h5.626c1.775,0,3.214,1.438,3.214,3.214c0,1.028-0.493,1.994-1.325,2.599
	l-4.552,3.308c-0.777,0.563-1.103,1.563-0.804,2.476l1.738,5.351c0.447,1.324-0.027,2.784-1.167,3.593
	C639.111,380.942,638.449,381.161,637.77,381.164z"/>
<path fill="#EF9E9E" d="M655.165,370.466c4.857-3.406,6.033-10.106,2.627-14.964c-0.363-0.518-0.771-1.002-1.221-1.448l7.773-93.872
	l-23.144,3.184l-0.44,91.204c-3.918,4.499-3.446,11.321,1.053,15.239C645.577,373.087,651.098,373.358,655.165,370.466z"/>
<path fill="#CCCCCC" d="M665.857,273.699c-0.434,0-0.865-0.063-1.28-0.186l-24.847-7.308c-2.384-0.701-3.748-3.202-3.048-5.585
	c0.036-0.121,0.076-0.239,0.121-0.356l9.195-23.754c0.793-2.074,2.985-3.253,5.152-2.771l16.415,3.568
	c2.113,0.46,3.601,2.359,3.542,4.521l-0.764,27.492C670.276,271.753,668.29,273.691,665.857,273.699L665.857,273.699z"/>
<path fill="#3F3D56" d="M432,391H7c-3.864-0.004-6.996-3.136-7-7V257c0.004-3.864,3.136-6.996,7-7h425c3.864,0.004,6.996,3.136,7,7
	v127C438.996,387.864,435.864,390.996,432,391z M7,252c-2.76,0.003-4.997,2.24-5,5v127c0.003,2.76,2.24,4.997,5,5h425
	c2.761-0.003,4.997-2.24,5-5V257c-0.003-2.76-2.239-4.997-5-5H7z"/>
<path fill="#FA8072" d="M192.975,444.476c-0.833-0.004-1.644-0.272-2.314-0.767l-5.576-4.052c-0.95-0.693-2.238-0.693-3.188,0
	l-5.577,4.052c-1.759,1.278-4.221,0.888-5.499-0.871c-0.741-1.02-0.949-2.331-0.56-3.529l2.13-6.556
	c0.365-1.117-0.033-2.343-0.985-3.032l-5.577-4.052c-1.759-1.277-2.149-3.739-0.871-5.498c0.741-1.02,1.925-1.623,3.185-1.623h6.893
	c1.175,0.003,2.217-0.755,2.579-1.873l2.13-6.556c0.671-2.067,2.893-3.199,4.96-2.527c1.199,0.389,2.139,1.329,2.528,2.527
	l2.129,6.556c0.361,1.118,1.403,1.876,2.579,1.873h6.893c2.174,0,3.937,1.763,3.937,3.937c0,1.261-0.603,2.444-1.623,3.185
	l-5.577,4.052c-0.952,0.689-1.35,1.915-0.985,3.032l2.13,6.556c0.546,1.621-0.035,3.41-1.43,4.4
	C194.619,444.203,193.808,444.472,192.975,444.476z"/>
<path fill="#FA8072" d="M249.483,444.476c-0.833-0.004-1.644-0.272-2.314-0.767l-5.576-4.052c-0.95-0.693-2.238-0.693-3.188,0
	l-5.577,4.052c-1.759,1.278-4.221,0.888-5.499-0.871c-0.741-1.019-0.949-2.331-0.559-3.529l2.13-6.556
	c0.365-1.117-0.033-2.343-0.985-3.032l-5.577-4.052c-1.759-1.277-2.148-3.739-0.87-5.498c0.74-1.02,1.924-1.623,3.185-1.623h6.893
	c1.175,0.003,2.217-0.755,2.579-1.873l2.13-6.556c0.672-2.067,2.893-3.199,4.96-2.527c1.199,0.389,2.139,1.329,2.528,2.527
	l2.13,6.556c0.361,1.118,1.404,1.876,2.579,1.873h6.893c2.174,0,3.937,1.763,3.937,3.937c0,1.261-0.603,2.444-1.622,3.185
	l-5.577,4.052c-0.953,0.689-1.351,1.915-0.985,3.032l2.13,6.556c0.547,1.621-0.035,3.41-1.43,4.4
	C251.127,444.203,250.316,444.472,249.483,444.476z"/>
<path fill="#FA8072" d="M305.992,444.476c-0.833-0.004-1.644-0.272-2.314-0.767l-5.577-4.052c-0.95-0.691-2.237-0.691-3.188,0
	l-5.576,4.052c-1.759,1.278-4.221,0.888-5.499-0.871c-0.741-1.019-0.949-2.331-0.559-3.529l2.13-6.556
	c0.365-1.117-0.033-2.343-0.985-3.032l-5.576-4.052c-1.759-1.277-2.148-3.739-0.871-5.498c0.741-1.02,1.924-1.623,3.185-1.623h6.893
	c1.175,0.003,2.218-0.755,2.579-1.873l2.13-6.556c0.671-2.067,2.892-3.199,4.96-2.527c1.199,0.389,2.138,1.329,2.528,2.527
	l2.13,6.556c0.361,1.118,1.403,1.876,2.579,1.873h6.893c2.174,0,3.937,1.763,3.937,3.937c0,1.261-0.604,2.444-1.623,3.185
	l-5.577,4.052c-0.952,0.689-1.35,1.915-0.985,3.032l2.13,6.556c0.547,1.621-0.034,3.41-1.43,4.4
	C307.636,444.203,306.825,444.472,305.992,444.476z"/>
<path fill="#FA8072" d="M362.5,444.476c-0.833-0.004-1.644-0.272-2.314-0.767l-5.576-4.052c-0.95-0.693-2.238-0.693-3.188,0
	l-5.577,4.052c-1.759,1.278-4.221,0.888-5.499-0.871c-0.741-1.02-0.948-2.331-0.559-3.529l2.13-6.556
	c0.366-1.117-0.033-2.343-0.985-3.031l-5.576-4.053c-1.759-1.277-2.148-3.739-0.871-5.498c0.741-1.02,1.925-1.623,3.185-1.623h6.893
	c1.176,0.003,2.218-0.755,2.579-1.873l2.13-6.556c0.671-2.067,2.892-3.199,4.96-2.527c1.199,0.389,2.139,1.329,2.528,2.527
	l2.13,6.556c0.361,1.118,1.403,1.876,2.579,1.873h6.893c2.174,0,3.937,1.763,3.937,3.937c0,1.261-0.604,2.444-1.623,3.185
	l-5.577,4.052c-0.952,0.689-1.35,1.915-0.985,3.032l2.13,6.556c0.546,1.621-0.035,3.41-1.43,4.4
	C364.144,444.203,363.333,444.472,362.5,444.476z"/>
<path fill="#3F3D56" d="M400.041,444.863c-0.915-0.003-1.805-0.298-2.542-0.84c-1.533-1.089-2.172-3.054-1.571-4.836l2.13-6.555
	c0.313-0.958-0.028-2.008-0.844-2.599l-5.577-4.052c-1.932-1.403-2.36-4.107-0.957-6.039c0.813-1.12,2.114-1.783,3.499-1.783h6.893
	c1.008,0.002,1.9-0.646,2.21-1.605l2.13-6.556c0.738-2.271,3.178-3.514,5.449-2.775c1.316,0.428,2.349,1.46,2.776,2.775l2.13,6.556
	c0.31,0.959,1.203,1.607,2.21,1.605h6.893c2.389,0,4.324,1.937,4.324,4.324c0,1.385-0.662,2.685-1.782,3.498l-5.576,4.052
	c-0.816,0.591-1.158,1.641-0.845,2.599l2.13,6.555c0.738,2.271-0.505,4.711-2.776,5.449c-1.316,0.428-2.758,0.199-3.878-0.614
	l-5.576-4.052c-0.813-0.594-1.918-0.594-2.732,0l-5.576,4.052C401.846,444.565,400.956,444.86,400.041,444.863z M409.525,437.525
	c0.913,0,1.803,0.29,2.541,0.828l5.576,4.051c1.038,0.755,2.492,0.524,3.246-0.514c0.438-0.602,0.561-1.377,0.33-2.084l-2.129-6.556
	c-0.583-1.781,0.052-3.735,1.57-4.835l5.576-4.051c1.038-0.755,1.269-2.208,0.514-3.247c-0.437-0.602-1.136-0.958-1.88-0.958h-6.893
	c-1.874,0.004-3.536-1.203-4.112-2.987l-2.13-6.556c-0.396-1.221-1.708-1.889-2.929-1.492c-0.707,0.23-1.262,0.785-1.492,1.492
	l-2.13,6.556c-0.576,1.784-2.237,2.991-4.112,2.987h-6.893c-1.284,0-2.324,1.041-2.324,2.324c0,0.744,0.356,1.443,0.958,1.881
	l5.576,4.051c1.519,1.1,2.153,3.054,1.571,4.835l-2.131,6.556c-0.396,1.221,0.271,2.531,1.492,2.928
	c0.708,0.23,1.482,0.107,2.084-0.33l5.577-4.051C407.722,437.815,408.611,437.525,409.525,437.525z"/>
<path fill="#CCCCCC" d="M55,280c-3.59,0-6.5,2.91-6.5,6.5s2.91,6.5,6.5,6.5h329c3.59,0,6.5-2.91,6.5-6.5s-2.91-6.5-6.5-6.5H55z"/>
<path fill="#CCCCCC" d="M55,314c-3.59,0-6.5,2.91-6.5,6.5s2.91,6.5,6.5,6.5h329c3.59,0,6.5-2.91,6.5-6.5s-2.91-6.5-6.5-6.5H55z"/>
<path fill="#CCCCCC" d="M55,348c-3.59,0-6.5,2.91-6.5,6.5s2.91,6.5,6.5,6.5h329c3.59,0,6.5-2.91,6.5-6.5s-2.91-6.5-6.5-6.5H55z"/>
<path fill="#CCCCCC" d="M55,280c-3.59,0-6.5,2.91-6.5,6.5s2.91,6.5,6.5,6.5h329c3.59,0,6.5-2.91,6.5-6.5s-2.91-6.5-6.5-6.5H55z"/>
<path fill="#CCCCCC" d="M55,314c-3.59,0-6.5,2.91-6.5,6.5s2.91,6.5,6.5,6.5h329c3.59,0,6.5-2.91,6.5-6.5s-2.91-6.5-6.5-6.5H55z"/>
<path fill="#CCCCCC" d="M55,348c-3.59,0-6.5,2.91-6.5,6.5s2.91,6.5,6.5,6.5h329c3.59,0,6.5-2.91,6.5-6.5s-2.91-6.5-6.5-6.5H55z"/>
<path fill="#3F3D56" d="M432,141H7c-3.864-0.004-6.996-3.136-7-7V7c0.004-3.864,3.136-6.996,7-7h425c3.864,0.004,6.996,3.136,7,7
	v127C438.996,137.864,435.864,140.996,432,141z M7,2C4.24,2.003,2.003,4.24,2,7v127c0.003,2.76,2.24,4.997,5,5h425
	c2.761-0.003,4.997-2.24,5-5V7c-0.003-2.76-2.239-4.997-5-5H7z"/>
<path fill="#FA8072" d="M192.975,194.475c-0.833-0.003-1.644-0.271-2.314-0.766l-5.576-4.051c-0.95-0.693-2.238-0.693-3.188,0
	l-5.577,4.051c-1.759,1.278-4.221,0.888-5.499-0.871c-0.741-1.019-0.948-2.331-0.56-3.53l2.13-6.555
	c0.365-1.117-0.033-2.343-0.985-3.032l-5.577-4.051c-1.759-1.278-2.149-3.74-0.871-5.499c0.74-1.02,1.924-1.623,3.185-1.623h6.893
	c1.175,0.002,2.217-0.755,2.579-1.874l2.13-6.556c0.671-2.067,2.893-3.199,4.96-2.527c1.199,0.389,2.139,1.329,2.528,2.527
	l2.129,6.556c0.361,1.118,1.403,1.875,2.579,1.874h6.893c2.174,0,3.937,1.762,3.937,3.937c0,1.26-0.603,2.444-1.623,3.185
	l-5.577,4.051c-0.952,0.689-1.35,1.915-0.985,3.032l2.13,6.555c0.546,1.622-0.035,3.411-1.43,4.401
	C194.619,194.204,193.808,194.472,192.975,194.475z"/>
<path fill="#FA8072" d="M249.483,194.475c-0.833-0.003-1.644-0.271-2.314-0.766l-5.576-4.051c-0.95-0.693-2.238-0.693-3.188,0
	l-5.577,4.051c-1.759,1.278-4.221,0.888-5.499-0.871c-0.741-1.02-0.949-2.332-0.559-3.53l2.13-6.555
	c0.365-1.117-0.033-2.343-0.985-3.032l-5.577-4.051c-1.759-1.278-2.148-3.74-0.87-5.499c0.741-1.02,1.924-1.623,3.185-1.623h6.893
	c1.175,0.002,2.217-0.755,2.579-1.874l2.13-6.556c0.672-2.067,2.893-3.199,4.96-2.528c1.199,0.39,2.139,1.33,2.528,2.528l2.13,6.556
	c0.361,1.118,1.404,1.875,2.579,1.874h6.893c2.174,0,3.937,1.762,3.937,3.937c0,1.26-0.603,2.444-1.622,3.185l-5.577,4.051
	c-0.953,0.689-1.351,1.915-0.985,3.032l2.13,6.555c0.547,1.622-0.035,3.411-1.43,4.401
	C251.127,194.204,250.316,194.472,249.483,194.475z"/>
<path fill="#FA8072" d="M305.992,194.475c-0.833-0.003-1.644-0.271-2.314-0.766l-5.577-4.051c-0.95-0.691-2.237-0.691-3.188,0
	l-5.576,4.051c-1.759,1.278-4.221,0.888-5.499-0.871c-0.741-1.02-0.949-2.332-0.559-3.53l2.13-6.555
	c0.365-1.117-0.033-2.343-0.985-3.032l-5.576-4.051c-1.759-1.278-2.148-3.74-0.871-5.499c0.741-1.02,1.924-1.623,3.185-1.623h6.893
	c1.175,0.002,2.218-0.755,2.579-1.874l2.13-6.556c0.671-2.067,2.892-3.199,4.96-2.528c1.199,0.39,2.138,1.33,2.528,2.528l2.13,6.556
	c0.361,1.118,1.403,1.875,2.579,1.874h6.893c2.174,0,3.937,1.762,3.937,3.937c0,1.26-0.604,2.444-1.623,3.185l-5.577,4.051
	c-0.952,0.689-1.35,1.915-0.985,3.032l2.13,6.555c0.547,1.622-0.034,3.41-1.43,4.401
	C307.636,194.204,306.825,194.472,305.992,194.475z"/>
<path fill="#3F3D56" d="M400.041,194.864c-0.915-0.003-1.805-0.298-2.542-0.841c-1.533-1.088-2.172-3.053-1.571-4.835l2.13-6.555
	c0.313-0.958-0.028-2.007-0.844-2.598l-5.577-4.052c-1.932-1.404-2.36-4.108-0.957-6.04c0.813-1.12,2.114-1.783,3.499-1.783h6.893
	c1.008,0.002,1.9-0.647,2.21-1.606l2.13-6.555c0.738-2.271,3.178-3.514,5.449-2.776c1.316,0.428,2.349,1.46,2.776,2.776l2.13,6.555
	c0.31,0.958,1.203,1.608,2.21,1.606h6.893c2.389,0,4.324,1.936,4.324,4.324c0,1.384-0.662,2.685-1.782,3.498l-5.576,4.052
	c-0.816,0.59-1.158,1.641-0.845,2.598l2.13,6.555c0.738,2.271-0.505,4.711-2.776,5.449c-1.316,0.428-2.758,0.199-3.878-0.614
	l-5.576-4.051c-0.813-0.594-1.918-0.594-2.732,0l-5.576,4.051C401.846,194.565,400.956,194.86,400.041,194.864z M409.525,187.525
	c0.913,0,1.803,0.29,2.541,0.828l5.576,4.051c1.038,0.755,2.492,0.525,3.246-0.513c0.438-0.602,0.561-1.377,0.33-2.085l-2.129-6.555
	c-0.583-1.782,0.052-3.735,1.57-4.834l5.576-4.052c1.038-0.754,1.269-2.208,0.514-3.246c-0.437-0.602-1.136-0.958-1.88-0.958h-6.893
	c-1.874,0.003-3.536-1.204-4.112-2.988l-2.13-6.555c-0.396-1.221-1.708-1.889-2.929-1.493c-0.707,0.23-1.262,0.785-1.492,1.493
	l-2.13,6.555c-0.576,1.784-2.237,2.991-4.112,2.988h-6.893c-1.284,0-2.324,1.041-2.324,2.324c0,0.744,0.356,1.443,0.958,1.88
	l5.576,4.052c1.519,1.099,2.153,3.053,1.571,4.834l-2.131,6.555c-0.396,1.221,0.271,2.532,1.492,2.928
	c0.708,0.23,1.482,0.107,2.084-0.33l5.577-4.051C407.722,187.815,408.611,187.525,409.525,187.525z"/>
<path fill="#CCCCCC" d="M55,30c-3.59,0-6.5,2.91-6.5,6.5S51.41,43,55,43h329c3.59,0,6.5-2.91,6.5-6.5S387.59,30,384,30H55z"/>
<path fill="#CCCCCC" d="M55,64c-3.59,0-6.5,2.91-6.5,6.5S51.41,77,55,77h329c3.59,0,6.5-2.91,6.5-6.5S387.59,64,384,64H55z"/>
<path fill="#CCCCCC" d="M55,98c-3.59,0-6.5,2.91-6.5,6.5s2.91,6.5,6.5,6.5h329c3.59,0,6.5-2.91,6.5-6.5S387.59,98,384,98H55z"/>
<path fill="#CCCCCC" d="M55,30c-3.59,0-6.5,2.91-6.5,6.5S51.41,43,55,43h329c3.59,0,6.5-2.91,6.5-6.5S387.59,30,384,30H55z"/>
<path fill="#CCCCCC" d="M55,64c-3.59,0-6.5,2.91-6.5,6.5S51.41,77,55,77h329c3.59,0,6.5-2.91,6.5-6.5S387.59,64,384,64H55z"/>
<path fill="#CCCCCC" d="M55,98c-3.59,0-6.5,2.91-6.5,6.5s2.91,6.5,6.5,6.5h329c3.59,0,6.5-2.91,6.5-6.5S387.59,98,384,98H55z"/>
<path fill="#FA8072" d="M305.992,194.475c-0.833-0.003-1.644-0.271-2.314-0.766l-5.577-4.051c-0.95-0.691-2.237-0.691-3.188,0
	l-5.576,4.051c-1.759,1.278-4.221,0.888-5.499-0.871c-0.741-1.02-0.949-2.332-0.559-3.53l2.13-6.555
	c0.365-1.117-0.033-2.343-0.985-3.032l-5.576-4.051c-1.759-1.278-2.148-3.74-0.871-5.499c0.741-1.02,1.924-1.623,3.185-1.623h6.893
	c1.175,0.002,2.218-0.755,2.579-1.874l2.13-6.556c0.671-2.067,2.892-3.199,4.96-2.528c1.199,0.39,2.138,1.33,2.528,2.528l2.13,6.556
	c0.361,1.118,1.403,1.875,2.579,1.874h6.893c2.174,0,3.937,1.762,3.937,3.937c0,1.26-0.604,2.444-1.623,3.185l-5.577,4.051
	c-0.952,0.689-1.35,1.915-0.985,3.032l2.13,6.555c0.547,1.622-0.034,3.41-1.43,4.401
	C307.636,194.204,306.825,194.472,305.992,194.475z"/>
<path fill="#FA8072" d="M362.5,194.475c-0.833-0.003-1.644-0.271-2.314-0.766l-5.576-4.051c-0.949-0.691-2.237-0.691-3.188,0
	l-5.576,4.051c-1.759,1.277-4.221,0.889-5.498-0.871c-0.741-1.02-0.949-2.331-0.56-3.529l2.13-6.556
	c0.365-1.117-0.033-2.343-0.985-3.032l-5.576-4.051c-1.759-1.278-2.148-3.74-0.87-5.499c0.74-1.02,1.924-1.622,3.184-1.622h6.893
	c1.176,0.002,2.219-0.756,2.579-1.874l2.13-6.556c0.672-2.067,2.893-3.199,4.961-2.527c1.198,0.389,2.138,1.329,2.527,2.527
	l2.13,6.556c0.361,1.118,1.403,1.876,2.579,1.874h6.893c2.174,0,3.937,1.762,3.937,3.936c0,1.261-0.604,2.444-1.622,3.186
	l-5.577,4.051c-0.952,0.689-1.351,1.915-0.985,3.032l2.131,6.556c0.547,1.621-0.035,3.41-1.43,4.4
	C364.144,194.203,363.333,194.472,362.5,194.475z"/>
</svg>
