<?xml version="1.0" encoding="utf-8"?>
<!-- Generator: Adobe Illustrator 16.0.0, SVG Export Plug-In . SVG Version: 6.00 Build 0)  -->
<!DOCTYPE svg PUBLIC "-//W3C//DTD SVG 1.0//EN" "http://www.w3.org/TR/2001/REC-SVG-20010904/DTD/svg10.dtd">
<svg version="1.0" id="Ebene_1" xmlns="http://www.w3.org/2000/svg" xmlns:xlink="http://www.w3.org/1999/xlink" x="0px" y="0px"
	 width="648.285px" height="758.926px" viewBox="0 0 648.285 758.926" enable-background="new 0 0 648.285 758.926"
	 xml:space="preserve">
<g id="af2bdc1b-6210-43fb-b58a-f82437f8cbdd">
	<title>things_to_say</title>
	<circle fill="#FA8072" cx="113.034" cy="583.859" r="13"/>
	<path fill="#FA8072" d="M378.621,743.524H157.348c0,0-4.484-65.784,22.054-66.532c26.537-0.747,23.548,29.155,56.813-11.96
		c33.267-41.115,73.634-38.873,78.865-14.577c5.231,24.295-10.092,43.73,17.939,37.751
		C361.054,682.226,401.421,697.924,378.621,743.524z"/>
	<path fill="#F2F2F2" d="M264.249,743.539l-0.746-0.029c1.74-43.313,10.813-71.141,18.115-86.856
		c7.928-17.066,15.568-23.978,15.646-24.043l0.495,0.559c-0.075,0.066-7.627,6.907-15.491,23.858
		C275.005,672.677,265.984,700.391,264.249,743.539z"/>
	<path fill="#F2F2F2" d="M344.333,743.629l-0.717-0.209c8.641-29.66,28.989-48.387,29.194-48.572l0.502,0.555
		C359.816,708.834,349.859,725.404,344.333,743.629z"/>
	<path fill="#F2F2F2" d="M192.199,743.576l-0.741-0.104c2.413-16.236-0.14-32.825-7.322-47.588
		c-2.945-6.189-6.847-11.883-11.558-16.865l0.517-0.538c4.773,5.044,8.726,10.806,11.711,17.072
		C192.055,710.449,194.632,727.189,192.199,743.576z"/>
	<path fill="#CFCCE0" d="M408.652,744.524H133.48l-0.063-0.935c-0.158-2.316-3.668-57.016,14.055-76.531
		c3.556-4.169,8.707-6.642,14.185-6.807c11.552-0.328,18.812,3.999,24.667,7.472c11.038,6.55,18.329,10.873,44.838-21.892
		c28.717-35.494,59.703-43.131,77.516-38.885c11.509,2.744,19.439,10.5,21.764,21.276c2.199,10.206,1.498,19.797,0.936,27.501
		c-0.602,8.245-1.078,14.758,2.309,17.708c2.826,2.464,8.471,2.688,17.758,0.705c18.887-4.028,45.24-0.582,58.471,16.511
		c7.117,9.194,12.725,25.909-0.979,53.319L408.652,744.524z M135.359,742.524h272.055c10.213-20.722,10.531-38.225,0.914-50.648
		c-12.135-15.68-37.594-19.807-56.475-15.778c-10.088,2.152-16.1,1.798-19.484-1.151c-4.141-3.607-3.631-10.562-2.988-19.361
		c0.555-7.578,1.242-17.009-0.896-26.935c-2.151-9.995-9.541-17.195-20.271-19.755c-17.244-4.112-47.363,3.428-75.496,38.196
		c-27.596,34.107-35.91,29.178-47.413,22.354c-5.928-3.518-12.657-7.503-23.591-7.193c-4.931,0.158-9.565,2.393-12.761,6.152
		C133.023,685.944,134.969,735.13,135.359,742.524z"/>
	<rect x="67.987" y="743.271" fill="#CFCCE0" width="394.74" height="2"/>
	<path fill="#CFCCE0" d="M42.847,530.903c0.35,2.432,0.364,4.898,0.041,7.336c-0.067,0.552-0.151,1.094-0.249,1.63v0.004
		c-1.16,5.762-3.478,11.229-6.812,16.068c-0.218,0.313-0.342,0.478-0.342,0.478l-0.467-0.354c-3.703-2.957-6.914-6.481-9.514-10.443
		c-0.228-0.359-0.455-0.723-0.672-1.096c-1.932-3.154-3.235-6.652-3.835-10.304l-0.008-0.053c-0.058-0.389-0.108-0.778-0.146-1.166
		c-0.304-3.41-0.011-6.848,0.867-10.157c0.104-0.41,0.213-0.815,0.331-1.22c1.331-4.449,3.344-8.664,5.967-12.495
		c0.218-0.313,0.343-0.478,0.343-0.478s0.167,0.12,0.467,0.354c3.598,2.872,6.733,6.281,9.294,10.107
		c0.225,0.344,0.447,0.689,0.666,1.047c1.499,2.412,2.654,5.021,3.434,7.752c0.133,0.478,0.251,0.964,0.354,1.453
		C42.677,529.874,42.769,530.386,42.847,530.903z"/>
	<path fill="#CFCCE0" d="M164.111,581.503c1.573,1.886,2.881,3.98,3.884,6.223c0.232,0.507,0.445,1.013,0.644,1.521l0.003,0.003
		c2.035,5.514,2.932,11.384,2.634,17.253c-0.021,0.382-0.041,0.587-0.041,0.587l-0.585-0.059c-4.704-0.574-9.287-1.892-13.579-3.898
		c-0.383-0.186-0.768-0.376-1.147-0.579c-3.3-1.671-6.245-3.966-8.671-6.758l-0.033-0.04c-0.254-0.301-0.5-0.604-0.735-0.917
		c-2.05-2.743-3.604-5.822-4.593-9.101c-0.127-0.405-0.248-0.81-0.358-1.212c-1.202-4.485-1.7-9.131-1.478-13.771
		c0.021-0.382,0.041-0.586,0.041-0.586s0.205,0.016,0.586,0.06c4.569,0.558,9.026,1.813,13.215,3.729
		c0.371,0.174,0.742,0.354,1.115,0.542c2.543,1.267,4.896,2.881,6.991,4.796c0.363,0.336,0.72,0.688,1.063,1.052
		C163.426,580.716,163.773,581.104,164.111,581.503z"/>
	<path fill="#FA8072" d="M437.566,190.426c-20.014-56.366,9.461-118.282,65.824-138.292c56.365-20.01,118.281,9.461,138.291,65.827
		c20.014,56.366-9.461,118.281-65.825,138.292c-33.538,11.907-70.788,6.576-99.642-14.262c-9.686,16.75-31.112,22.477-47.862,12.792
		c-16.749-9.684-22.478-31.113-12.794-47.863C420.341,198.653,428.288,192.695,437.566,190.426z"/>
	<path fill="#CFCCE0" d="M426.851,237.649c-20.109-5.159-32.232-25.646-27.075-45.759c3.349-13.054,13.429-23.317,26.419-26.901
		C405.67,105.386,437.349,40.43,496.952,19.905C556.555-0.619,621.51,31.06,642.035,90.662
		c20.521,59.603-11.154,124.559-70.758,145.083c-34.738,11.962-73.111,6.471-103.104-14.754
		C459.503,234.956,442.785,241.695,426.851,237.649z M562.179,18.866C502.078,3.459,440.865,39.693,425.458,99.794
		c-5.551,21.66-4.515,44.484,2.98,65.551l0.373,1.043l-1.076,0.264c-19.097,4.669-30.794,23.935-26.123,43.032
		c4.668,19.097,23.934,30.793,43.031,26.125c9.428-2.305,17.506-8.36,22.361-16.763l0.557-0.96l0.896,0.649
		c50.289,36.34,120.514,25.032,156.854-25.256c36.34-50.288,25.031-120.513-25.258-156.853
		C588.654,28.387,575.806,22.362,562.179,18.866z"/>
	<path fill="#CFCCE0" d="M119.034,590.859c-7.731,0-14-6.271-14-14c0-7.732,6.269-14,14-14c7.731,0,14,6.268,14,14
		C133.023,584.588,126.762,590.851,119.034,590.859z M119.034,564.859c-6.628,0-12,5.372-12,12c0,6.627,5.372,12,12,12
		c6.627,0,12-5.373,12-12C131.026,570.235,125.658,564.866,119.034,564.859z"/>
	<circle fill="#FA8072" cx="389.33" cy="625.524" r="13"/>
	<path fill="#CFCCE0" d="M385.33,632.524c-7.729,0-14-6.271-14-14c0-7.732,6.271-14,14-14c7.73,0,14,6.268,14,14
		C399.322,626.253,393.059,632.516,385.33,632.524z M385.33,606.524c-6.627,0-12,5.372-12,12c0,6.627,5.373,12,12,12
		c6.629,0,12-5.373,12-12C397.324,611.899,391.955,606.531,385.33,606.524z"/>
	<circle fill="#FA8072" cx="18.33" cy="698.524" r="13"/>
	<path fill="#CFCCE0" d="M14.33,705.524c-7.732,0-14-6.271-14-14c0-7.732,6.268-14,14-14s14,6.268,14,14
		C28.321,699.253,22.059,705.516,14.33,705.524z M14.33,679.524c-6.627,0-12,5.372-12,12c0,6.627,5.373,12,12,12s12-5.373,12-12
		C26.323,684.899,20.955,679.531,14.33,679.524z"/>
	<circle fill="#CFCCE0" cx="482.972" cy="583.859" r="13"/>
	<path fill="#CFCCE0" d="M377.37,592.394c0,0-13-32,26-56L377.37,592.394z"/>
	<g>
		<path fill="#FFFFFF" d="M514.168,163.771v-26.763h-9.559v-5.449h25.598v5.449h-9.535v26.763H514.168z"/>
		<path fill="#FFFFFF" d="M542.864,163.771v-13.557l-11.8-18.655h7.625l7.58,12.744l7.428-12.744h7.492l-11.844,18.699v13.513
			H542.864z"/>
		<path fill="#FFFFFF" d="M578.48,155.465l-1.604-16.348v-7.559h6.68v7.559l-1.582,16.348H578.48z M577.141,163.771v-6.174h6.174
			v6.174H577.141z"/>
	</g>
</g>
<g id="Ebene_2">
	<path fill="#2F2E41" d="M262.396,176.948c18.859-0.097,34.709,9.862,33.382,33.383c-1.039,18.407-14.946,33.382-33.382,33.382
		c-18.438,0-27.483-15.916-33.383-33.382C222.009,189.602,240.113,177.063,262.396,176.948z"/>
	<rect x="229.89" y="207.695" fill="#2F2E41" width="65.888" height="83.456"/>
	<path fill="#FA8072" d="M232.937,338.987l-8.718,82.19l-15.563,31.136c0,0,16.799-10.491,8.082-49.1
		c-8.718-38.604-0.611-64.229-0.611-64.229s4.981-4.359-1.244-28.021c-6.227-23.662,7.472-41.097,7.472-41.097h5.604
		L232.937,338.987z"/>
	<path opacity="0.1" enable-background="new    " d="M232.937,339.019l-8.718,82.193l-15.563,31.134c0,0,16.799-10.49,8.082-49.098
		c-8.718-38.606-0.611-64.229-0.611-64.229s4.981-4.357-1.244-28.02c-6.227-23.662,7.472-41.097,7.472-41.097h5.604L232.937,339.019
		z"/>
	<path fill="#FBBEBE" d="M279.949,244.652c-4.359,6.227,1.867,13.699,1.867,13.699l-4.98,18.058l-5.604,5.604l-18.68,20.547
		l-14.944,3.113l-4.358-14.944l5.604-20.548c0,0,8.718-10.585,11.208-10.585c2.491,0-2.49-19.926-2.49-19.926
		S284.308,238.425,279.949,244.652z"/>
	<path opacity="0.1" enable-background="new    " d="M279.949,244.652c-4.359,6.227,1.867,13.699,1.867,13.699l-4.98,18.058
		l-5.604,5.604l-18.68,20.547l-14.944,3.113l-4.358-14.944l5.604-20.548c0,0,8.718-10.585,11.208-10.585
		c2.491,0-2.49-19.926-2.49-19.926S284.308,238.425,279.949,244.652z"/>
	<path fill="#FBBEBE" d="M407.595,305.674l13.7-18.058c0,0,26.618-24,16.032-35.832c-10.586-11.831-25.371,20.888-25.371,20.888
		l-13.7,22.416L407.595,305.674z"/>
	<path fill="#FBBEBE" d="M263.759,474.418l-2.49,89.665c20.548,12.453,32.38,71.607,32.38,71.607l-9.964,18.68
		c0,0-33.625-44.833-46.077-65.381c-12.453-20.548-11.207-26.152-11.207-26.152l-9.965-72.852L263.759,474.418z"/>
	<path opacity="0.1" enable-background="new    " d="M263.759,474.418l-2.49,89.665c20.548,12.453,32.38,71.607,32.38,71.607
		l-9.964,18.68c0,0-33.625-44.833-46.077-65.381c-12.453-20.548-11.207-26.152-11.207-26.152l-9.965-72.852L263.759,474.418z"/>
	<path fill="#2F2E41" d="M300.497,636.935c7.472,3.113,9.34,8.097,9.34,8.097l15.567,26.149l-3.113,1.868l-9.341-15.564
		c0,0-2.491,1.866-6.227,8.095c-3.736,6.227,3.112,32.379,3.112,34.247s-9.34,14.32-21.17,17.435
		c-11.831,3.113-6.228-24.905-1.868-28.021c4.359-3.113-6.85-34.869-6.85-34.869l13.699-26.151L300.497,636.935z"/>
	<path opacity="0.1" enable-background="new    " d="M300.497,636.935c7.472,3.113,9.34,8.097,9.34,8.097l15.567,26.149
		l-3.113,1.868l-9.341-15.564c0,0-2.491,1.866-6.227,8.095c-3.736,6.227,3.112,32.379,3.112,34.247s-9.34,14.32-21.17,17.435
		c-11.831,3.113-6.228-24.905-1.868-28.021c4.359-3.113-6.85-34.869-6.85-34.869l13.699-26.151L300.497,636.935z"/>
	<path fill="#FBBEBE" d="M312.95,474.418c0,0-26.151,41.72-15.565,88.42c10.584,46.7-13.698,95.27-13.698,95.27l-14.322-1.867
		v-89.664c-10.584-18.06-5.749-86.926-5.749-86.926L312.95,474.418z"/>
	<circle fill="#FBBEBE" cx="267.185" cy="228.774" r="26.151"/>
	<path fill="#FA8072" d="M244.456,272.673c1.867-0.623,5.604-13.076,5.604-13.076s-23.037,6.227-27.396,9.962
		c-1.221,1.046-2.147,3.802-2.852,7.227c-1.809,8.806-2.132,22.039-2.132,22.039c-16.812,23.662-4.358,39.851-4.358,39.851
		l11.21,37.36c0,0,52.926-3.736,69.116-9.34c16.188-5.604,21.792-34.247,21.792-34.247s11.21,14.943,41.72,19.303
		c30.512,4.359,32.379-9.962,37.359-14.944c4.98-4.979,14.32-14.319,18.682-21.793c4.359-7.472-13.699-26.773-13.699-24.284
		c0,2.491-20.549,11.832-20.549,11.832l-17.436,3.112c0,0-21.172-8.095-33.002-21.793c-11.83-13.699-23.039-16.188-23.039-16.188
		l-17.434-4.981l-6.229-8.095l-14.943,9.963l-26.152,33.001C238.23,294.466,242.587,273.295,244.456,272.673z"/>
	<path fill="#2F2E41" d="M332.566,458.54c-7.99-29.109-18.604-81.763-31.82-89.378c-1.801-0.997-3.28-2.49-4.26-4.302
		c-0.629-1.208-1.893-2.144-4.396-1.588c-5.604,1.243-14.321-1.246-21.17,2.488c-6.851,3.736-26.151,6.852-29.888,5.604
		c-3.737-1.247-17.393,1.706-17.393,1.706s3.691,25.066-3.156,31.918c-6.851,6.85-33.002,87.174-17.435,90.91
		c15.565,3.734,58.529,0,58.529-1.868c0-0.236,0.287-0.628,0.884-1.134c1.309-1.026,2.732-1.895,4.247-2.577
		c8.146-3.917,26.401-9.056,57.759-6.874C324.469,483.447,341.283,490.296,332.566,458.54z"/>
	<path fill="#2F2E41" d="M286.036,652.892l-1.729,23.896c6.851,15.565,1.868,24.906,1.868,24.906l2.044,41.308l-6.228-0.622
		l-2.044-35.704c0,0-7.474,30.514-8.719,33.624c-1.244,3.113-11.207,1.868-21.793,2.491c-10.586,0.622-19.925-12.454-8.718-18.058
		c11.209-5.604,14.322-26.152,14.322-26.152c-3.736-15.567,9.34-34.247,9.34-34.247l2.49-13.699
		C268.741,656.86,286.036,652.892,286.036,652.892z"/>
	<path opacity="0.1" enable-background="new    " d="M262.515,452.002c-2.284-0.572-0.382,35.013-0.052,40.896
		c1.308-1.026,2.732-1.895,4.247-2.577L262.515,452.002z"/>
	<path fill="#2F2E41" d="M232.526,192.761c-12.743,5.664-20.355,36.105-10.444,50.265c9.912,14.159,2.832,18.406,2.832,18.406
		c-21.238,18.407-9.911,38.229-9.911,38.229l2.832-2.832c5.663,14.159,24.07,14.159,24.07,14.159l-5.664-11.328l8.496,8.496
		l-1.417-7.08l0,0c-1.415-7.079,0,0,11.329-18.406c11.326-18.407-5.665-31.15-12.744-45.31
		c-7.079-14.159,1.415-18.407,11.327-22.654c9.911-4.248,21.237-12.743,21.237-12.743c19.823,19.823,22.578,17.533,16.914,37.356
		c-0.668,2.34-1.257,4.633-1.773,6.858c-3.003,13.188-2.518,26.927,1.404,39.87c4.517,15.19-4.509,27.065-4.509,27.065l7.079-4.248
		c0.487-0.199,0.963-0.401,1.432-0.604c16.563-7.222,21.041-28.313,9.669-42.355c-3.029-3.742-4.888-9.09-2.604-16.508
		c5.664-18.406-1.126-49.753-12.453-54.001c-11.328-4.248-11.617-2.635-11.617-2.635S245.271,187.098,232.526,192.761z"/>
	<circle fill="#2F2E41" cx="262.394" cy="170.799" r="13.178"/>
	<path fill="#2F2E41" d="M266.349,176.882c0.433,0.042,0.871,0.066,1.316,0.066c7.277,0,13.177-5.899,13.177-13.177
		c0-7.277-5.898-13.177-13.177-13.177c-0.445,0-0.885,0.024-1.316,0.067c6.732,0.677,11.857,6.344,11.858,13.11
		C278.206,170.538,273.081,176.205,266.349,176.882z"/>
</g>
</svg>
