<?xml version="1.0" encoding="utf-8"?>
<!-- Generator: Adobe Illustrator 16.0.0, SVG Export Plug-In . SVG Version: 6.00 Build 0)  -->
<!DOCTYPE svg PUBLIC "-//W3C//DTD SVG 1.1//EN" "http://www.w3.org/Graphics/SVG/1.1/DTD/svg11.dtd">
<svg version="1.1" id="aab721b6-4aa1-4d02-a3e3-167256aa258c"
	 xmlns="http://www.w3.org/2000/svg" xmlns:xlink="http://www.w3.org/1999/xlink" x="0px" y="0px" width="635.084px"
	 height="489.481px" viewBox="0 0 635.084 489.481" enable-background="new 0 0 635.084 489.481" xml:space="preserve">
<path fill="#FA8072" d="M134.184,0c-17.255-0.046-34.351,5.071-50.343,15.067c-0.644,0.407-1.29,0.816-1.937,1.235
	C32.213,48.659-0.064,123.833,0,207.06V433c0.004,4.969,2.613,8.994,5.832,9l0.116,0.016
	c112.414,31.502,221.7,47.465,324.912,47.465c1.547,0,3.093-0.004,4.637-0.011c101.455-0.477,200.243-16.439,293.618-47.447
	l0.136-0.022c3.22-0.006,5.83-4.031,5.833-9V9c-0.004-4.968-2.613-8.994-5.833-9H134.184z"/>
<g opacity="0.4">
	<circle fill="#FFFFFF" cx="54.024" cy="374.765" r="5.024"/>
	<circle fill="#FFFFFF" cx="54.024" cy="353.833" r="5.024"/>
	<circle fill="#FFFFFF" cx="54.024" cy="332.9" r="5.024"/>
	<circle fill="#FFFFFF" cx="54.024" cy="311.966" r="5.024"/>
	<circle fill="#FFFFFF" cx="54.024" cy="291.034" r="5.024"/>
	<circle fill="#FFFFFF" cx="54.024" cy="270.101" r="5.024"/>
	<circle fill="#FFFFFF" cx="54.024" cy="249.168" r="5.024"/>
	<circle fill="#FFFFFF" cx="69.933" cy="374.765" r="5.024"/>
	<circle fill="#FFFFFF" cx="69.933" cy="353.833" r="5.024"/>
	<circle fill="#FFFFFF" cx="69.933" cy="332.9" r="5.024"/>
	<circle fill="#FFFFFF" cx="69.933" cy="311.966" r="5.024"/>
	<circle fill="#FFFFFF" cx="69.933" cy="291.034" r="5.024"/>
	<circle fill="#FFFFFF" cx="69.933" cy="270.101" r="5.024"/>
	<circle fill="#FFFFFF" cx="69.933" cy="249.168" r="5.024"/>
	<circle fill="#FFFFFF" cx="85.842" cy="374.765" r="5.024"/>
	<circle fill="#FFFFFF" cx="85.842" cy="353.833" r="5.024"/>
	<circle fill="#FFFFFF" cx="85.842" cy="332.9" r="5.024"/>
	<circle fill="#FFFFFF" cx="85.842" cy="311.966" r="5.024"/>
	<circle fill="#FFFFFF" cx="85.842" cy="291.034" r="5.024"/>
	<circle fill="#FFFFFF" cx="85.842" cy="270.101" r="5.024"/>
	<circle fill="#FFFFFF" cx="85.842" cy="249.168" r="5.024"/>
	<circle fill="#FFFFFF" cx="101.751" cy="374.765" r="5.024"/>
	<circle fill="#FFFFFF" cx="101.751" cy="353.833" r="5.024"/>
	<circle fill="#FFFFFF" cx="117.66" cy="374.765" r="5.024"/>
	<circle fill="#FFFFFF" cx="117.66" cy="353.833" r="5.024"/>
	<circle fill="#FFFFFF" cx="117.66" cy="332.9" r="5.024"/>
	<circle fill="#FFFFFF" cx="101.751" cy="332.9" r="5.024"/>
	<circle fill="#FFFFFF" cx="101.751" cy="311.966" r="5.024"/>
	<circle fill="#FFFFFF" cx="101.751" cy="291.034" r="5.024"/>
	<circle fill="#FFFFFF" cx="101.751" cy="270.101" r="5.024"/>
	<circle fill="#FFFFFF" cx="101.751" cy="249.168" r="5.024"/>
</g>
<path fill="#3F3D56" d="M497.408,33.002H163.667c-3.413,0.004-6.179,2.77-6.183,6.183v285.383c0.003,3.413,2.77,6.18,6.183,6.183
	h333.742c3.413-0.003,6.179-2.77,6.183-6.183V39.185C503.587,35.771,500.821,33.006,497.408,33.002z M501.113,324.567
	c-0.001,2.048-1.657,3.709-3.705,3.717H163.667c-2.049-0.003-3.708-1.667-3.705-3.717V39.185c-0.003-2.049,1.656-3.713,3.705-3.716
	h333.742c2.048,0.007,3.704,1.668,3.705,3.716V324.567z"/>
<path fill="#FFFFFF" d="M240.703,280.006c0,0.44-0.012,0.881-0.035,1.309c-0.726,13.885-12.569,24.553-26.454,23.827
	c-12.871-0.673-23.154-10.956-23.827-23.827c-0.023-0.428-0.034-0.868-0.034-1.309c0-13.903,11.271-25.175,25.175-25.175
	S240.703,266.103,240.703,280.006z"/>
<path fill="#3F3D56" d="M471.475,263.219H273.663c-2.317,0.006-4.192,1.889-4.187,4.207c0.005,2.311,1.877,4.182,4.187,4.188
	h197.812c2.318-0.006,4.192-1.89,4.188-4.207C475.656,265.096,473.785,263.225,471.475,263.219z"/>
<path fill="#FFFFFF" d="M358.78,288.4h-85.117c-2.314,0.004-4.188,1.883-4.184,4.197c0.004,2.31,1.875,4.181,4.184,4.184h85.117
	c2.315,0.004,4.194-1.869,4.198-4.184s-1.87-4.193-4.184-4.197C358.79,288.4,358.785,288.4,358.78,288.4z"/>
<path fill="#FFFFFF" d="M576.698,233.581h-333.74c-4.72-0.006-8.544-3.83-8.549-8.55V78.569c0.005-4.719,3.83-8.544,8.549-8.549
	h333.74c4.719,0.005,8.544,3.83,8.549,8.549v146.462C585.242,229.75,581.418,233.575,576.698,233.581z M242.958,73.02
	c-3.063,0.003-5.545,2.486-5.549,5.549v146.462c0.003,3.063,2.485,5.546,5.549,5.55h333.74c3.063-0.004,5.546-2.486,5.549-5.55
	V78.569c-0.003-3.063-2.485-5.546-5.549-5.549H242.958z"/>
<path fill="#FFFFFF" d="M310.924,123.439c-2.317-0.002-4.198,1.874-4.201,4.191s1.874,4.198,4.191,4.2c0.003,0,0.006,0,0.009,0
	h197.807c2.317,0.003,4.198-1.874,4.201-4.191c0.002-2.317-1.875-4.198-4.191-4.2c-0.004,0-0.007,0-0.01,0H310.924z"/>
<path fill="#FFFFFF" d="M310.924,147.752c-2.317,0-4.196,1.879-4.196,4.196c0,2.317,1.878,4.196,4.196,4.196h197.807
	c2.317,0,4.196-1.879,4.196-4.196c0-2.317-1.879-4.196-4.196-4.196H310.924z"/>
<path fill="#FFFFFF" d="M310.924,171.77c-2.317,0.003-4.194,1.883-4.191,4.201c0.002,2.314,1.877,4.189,4.191,4.191h85.117
	c2.317,0,4.196-1.878,4.196-4.196s-1.879-4.196-4.196-4.196H310.924z"/>
<path fill="#3F3D56" d="M449.666,433.32H211.409c-2.436-0.003-4.409-1.977-4.412-4.412v-59.102c0.003-2.436,1.977-4.409,4.412-4.412
	h238.257c2.436,0.003,4.409,1.977,4.412,4.412v59.102C454.075,431.344,452.102,433.317,449.666,433.32z M211.409,367.16
	c-1.461,0.001-2.646,1.186-2.647,2.646v59.102c0.001,1.462,1.186,2.646,2.647,2.647h238.257c1.461-0.002,2.646-1.186,2.647-2.647
	v-59.102c-0.002-1.461-1.187-2.646-2.647-2.646H211.409z"/>
<circle fill="#FFFFFF" cx="248.429" cy="397.09" r="17.973"/>
<path fill="#FFFFFF" d="M289.938,385.108c-1.654-0.006-3,1.331-3.005,2.985s1.331,3,2.985,3.005c0.007,0,0.014,0,0.02,0h141.215
	c1.654,0.004,2.999-1.334,3.002-2.988c0.004-1.654-1.334-2.999-2.988-3.002c-0.005,0-0.009,0-0.014,0H289.938z"/>
<path fill="#FFFFFF" d="M289.938,403.081c-1.654-0.006-3,1.331-3.005,2.985s1.331,3,2.985,3.006c0.007,0,0.014,0,0.02,0h60.766
	c1.654,0.003,2.998-1.335,3.002-2.989c0.003-1.654-1.334-2.998-2.989-3.002c-0.004,0-0.009,0-0.013,0H289.938z"/>
<path fill="#FFFFFF" d="M504.362,371.403c17.392,0,31.494,14.104,31.494,31.496s-14.103,31.489-31.494,31.489
	c-17.395,0-31.491-14.098-31.491-31.489S486.968,371.403,504.362,371.403z"/>
</svg>
